<svg width="34" height="40" viewBox="0 0 34 40" fill="none" xmlns="http://www.w3.org/2000/svg">
<path fill-rule="evenodd" clip-rule="evenodd" d="M21.9533 0H14.9933V9.88667C14.0027 9.64766 12.9856 9.53565 11.9667 9.55333C4.69333 9.55167 0 13.8417 0 20.455C0 27.3183 4.425 30.8933 12.925 30.9017C15.7633 30.9017 18.3883 30.6517 21.9533 30.0183V0ZM12.89 14.9617C13.75 14.9617 14.4233 15.045 15.2367 15.295V25.7083C14.2433 25.8333 13.6167 25.875 12.8467 25.875C9.28 25.875 7.33833 23.9717 7.33833 20.525C7.33833 16.9833 9.37167 14.9617 12.89 14.9617Z" fill="#EDEBDF"/>
<path d="M33.3333 25.3883V10.3583H26.3833V23.15C26.3833 28.795 26.07 30.94 25.075 32.7933C24.125 34.605 22.6383 35.7933 19.5667 37.1367L26.025 40C29.0967 38.5633 30.5833 37.2617 31.7117 35.2C32.9217 33.0533 33.3333 30.5633 33.3333 25.3883ZM32.64 0H25.6833V6.655H32.6416L32.64 0Z" fill="#EDEBDF"/>
</svg>
