<svg width="128" height="43" viewBox="0 0 128 43" fill="none" xmlns="http://www.w3.org/2000/svg">
<g clip-path="url(#clip0_2_349)">
<path d="M24.548 11.5042L24.5053 0H18.0903L18.133 11.5042L21.3405 15.909L24.548 11.5042ZM18.133 31.2195V42.7665H24.548V31.2195L21.3405 26.8145L18.133 31.2195Z" fill="white"/>
<path d="M24.548 31.2194L31.305 40.5424L36.4798 36.7792L29.7228 27.4559L24.548 25.7882V31.2194ZM18.133 11.5042L11.333 2.18091L6.15826 5.94441L12.9155 15.2674L18.133 16.9354V11.5042Z" fill="#00F2E6"/>
<path d="M12.9155 15.2675L1.96725 11.718L0 17.7908L10.9482 21.3833L16.123 19.6725L12.9155 15.2675ZM26.5152 23.051L29.7227 27.456L40.671 31.0058L42.6382 24.9328L31.69 21.3833L26.5152 23.051Z" fill="#00B9F1"/>
<path d="M31.69 21.3833L42.6382 17.7908L40.671 11.718L29.7227 15.2675L26.5152 19.6725L31.69 21.3833ZM10.9482 21.3833L0 24.9328L1.96725 31.0058L12.9155 27.456L16.123 23.051L10.9482 21.3833Z" fill="#D63AFF"/>
<path d="M12.9155 27.4559L6.15826 36.7792L11.333 40.5424L18.133 31.2194V25.7882L12.9155 27.4559ZM29.7228 15.2674L36.4798 5.94441L31.305 2.18091L24.548 11.5042V16.9354L29.7228 15.2674Z" fill="#FB015B"/>
<path d="M66.5875 10.9055V25.8738C66.5875 29.1668 63.893 31.861 60.6 31.861V28.8673C62.268 28.8673 63.5937 27.5415 63.5937 25.8738V10.9055H66.5872H66.5875ZM121.243 13.899H128V10.9055H111.535V13.899H118.249V31.861H121.243V13.899ZM102.511 10.9055V25.8738C102.511 27.5415 101.185 28.8673 99.5175 28.8673C97.8497 28.8673 96.524 27.5415 96.524 25.8738V16.8925C96.524 13.5995 93.8295 10.905 90.5365 10.905C87.2435 10.905 84.5492 13.5995 84.5492 16.8925V25.8735C84.5492 27.5413 83.2235 28.867 81.5557 28.867C79.8877 28.867 78.562 27.5413 78.562 25.8735V10.9055H75.5682V25.8738C75.5682 29.1668 78.2625 31.861 81.5557 31.861C84.8487 31.861 87.543 29.1668 87.543 25.8735V16.893C87.543 15.225 88.8687 13.8993 90.5365 13.8993C92.2045 13.8993 93.5302 15.225 93.5302 16.893V25.874C93.5302 29.167 96.2245 31.8613 99.5177 31.8613C102.81 31.8613 105.505 29.167 105.505 25.8738V10.9058L102.511 10.9055Z" fill="#EDEBDF"/>
</g>
<defs>
<clipPath id="clip0_2_349">
<rect width="128" height="43" fill="white"/>
</clipPath>
</defs>
</svg>
