<svg width="55" height="55" viewBox="0 0 55 55" fill="none" xmlns="http://www.w3.org/2000/svg">
<path d="M54.6943 30.514L47.9243 27.2436L54.3374 24.2442C54.835 24.0109 55.127 23.3955 54.783 22.8219L54.1166 22.0504C53.6864 21.5799 53.2194 21.237 52.652 21.4602L47.8871 23.2563C47.783 23.2955 47.6691 23.3003 47.5621 23.2701L45.7177 22.7476C45.6504 22.7286 45.5794 22.7274 45.5116 22.7441C45.4437 22.7608 45.3814 22.7949 45.3307 22.843L43.3578 24.7158C42.9259 22.233 41.9144 19.887 40.4056 17.8685L43.2899 17.8459C43.3509 17.8454 43.4107 17.8287 43.4631 17.7974C43.5155 17.7661 43.5587 17.7215 43.5881 17.668L44.6091 15.8161C44.6622 15.7197 44.7461 15.644 44.8473 15.601L49.567 13.5886C49.8568 13.4651 50.0352 12.8628 49.9795 12.4723L49.8259 11.0629C49.7004 10.6581 49.132 10.3019 48.8604 10.4022L41.7609 12.8768L44.1749 6.22097C44.3616 5.70427 44.133 5.06296 43.4841 4.90032L42.4673 4.8262C41.8305 4.79784 41.2577 4.88528 41.0143 5.44452L38.915 10.0836C38.8692 10.1849 38.7921 10.2689 38.695 10.3232L37.0214 11.2578C36.9604 11.2919 36.9093 11.3412 36.8731 11.4011C36.837 11.4609 36.817 11.5291 36.8152 11.5989L36.7443 14.3193C34.683 12.8685 32.3083 11.925 29.8134 11.5656L31.8385 9.50871C31.8813 9.46522 31.9118 9.41112 31.9268 9.35195C31.9418 9.29278 31.9408 9.23069 31.9238 9.17206L31.3362 7.14071C31.3057 7.03498 31.3113 6.92208 31.3523 6.81995L33.2666 2.05966C33.3845 1.76748 33.0848 1.21533 32.769 0.978572L31.6638 0.0904091C31.2887 -0.106817 30.6347 0.0429287 30.5138 0.305897L27.2434 7.07604L24.244 0.662752C24.0107 0.165175 23.3954 -0.126583 22.8217 0.217167L22.0502 0.883826C21.5797 1.31394 21.2368 1.7808 21.4603 2.34841L23.2561 7.113C23.2955 7.21719 23.3002 7.33106 23.2699 7.43805L22.7476 9.2827C22.7285 9.34989 22.7273 9.4209 22.744 9.48871C22.7607 9.55653 22.7948 9.61881 22.843 9.66942L24.7156 11.6423C22.2328 12.0742 19.887 13.0856 17.8685 14.5943L17.8457 11.7104C17.8453 11.6494 17.8286 11.5895 17.7974 11.537C17.7662 11.4845 17.7215 11.4413 17.668 11.4118L15.8161 10.3911C15.7198 10.338 15.644 10.2542 15.6008 10.153L13.5886 5.43292C13.465 5.14331 12.8628 4.96499 12.472 5.02085L11.0627 5.17425C10.6581 5.29993 10.3017 5.86819 10.402 6.13976L12.8768 13.2395L6.22093 10.8255C5.70402 10.6386 5.06271 10.8674 4.90007 11.5162L4.82595 12.5331C4.79759 13.1696 4.88503 13.7426 5.44427 13.9858L10.0834 16.0849C10.1848 16.1308 10.2688 16.2081 10.323 16.3053L11.258 17.9789C11.3271 18.1029 11.4569 18.1813 11.5989 18.185L14.3188 18.2558C12.8682 20.3171 11.9249 22.6917 11.5656 25.1865L9.50848 23.1616C9.46499 23.1188 9.41088 23.0883 9.35171 23.0733C9.29254 23.0583 9.23045 23.0593 9.17182 23.0763L7.14047 23.6639C7.03483 23.6945 6.92195 23.6889 6.81992 23.6478L2.05962 21.7333C1.76722 21.6158 1.21528 21.9155 0.978523 22.2311L0.0903579 23.3365C-0.106869 23.7114 0.0430923 24.3651 0.306061 24.4863L7.0758 27.7567L0.662703 30.7559C0.165124 30.9894 -0.126635 31.6045 0.217116 32.1781L0.883777 32.9498C1.31389 33.4201 1.78097 33.7632 2.34837 33.54L7.11318 31.7439C7.21729 31.7048 7.3312 31.6999 7.43824 31.7302L9.28268 32.2527C9.41932 32.2914 9.56627 32.2548 9.6694 32.1573L11.6425 30.2845C12.0744 32.7672 13.0858 35.1131 14.5945 37.1316L11.7104 37.1543C11.6494 37.1549 11.5896 37.1716 11.5372 37.2029C11.4848 37.2341 11.4417 37.2788 11.4122 37.3322L10.3913 39.184C10.338 39.2803 10.2541 39.3562 10.1528 39.3994L5.43331 41.4117C5.14328 41.5352 4.96495 42.1374 5.02081 42.528L5.17421 43.9374C5.2999 44.3421 5.86816 44.6983 6.13994 44.598L13.2395 42.1234L10.8255 48.7793C10.6386 49.296 10.8674 49.9373 11.5162 50.0999L12.5331 50.1741C13.1696 50.2024 13.7426 50.115 13.9858 49.5557L16.0849 44.9166C16.1309 44.8153 16.2082 44.7314 16.3053 44.6771L17.9789 43.7423C18.1029 43.6729 18.1813 43.5434 18.185 43.4013L18.2559 40.681C20.3171 42.1318 22.6918 43.0753 25.1867 43.4346L23.1616 45.4915C23.1189 45.5351 23.0884 45.5892 23.0735 45.6484C23.0585 45.7075 23.0596 45.7696 23.0765 45.8282L23.6641 47.8596C23.6946 47.9653 23.6889 48.0782 23.6478 48.1803L21.7333 52.9406C21.6158 53.2328 21.9155 53.7849 22.2313 54.0217L23.3363 54.9096C23.7112 55.1069 24.3649 54.9569 24.4863 54.6942L27.7563 47.924L30.7561 54.3371C30.9894 54.8349 31.6045 55.1266 32.1784 54.7829L32.9497 54.1162C33.42 53.6861 33.7633 53.219 33.5399 52.6516L31.7438 47.8871C31.7046 47.7829 31.6998 47.669 31.7302 47.562L32.2523 45.7173C32.291 45.5807 32.2549 45.4338 32.1571 45.3306L30.2845 43.3575C32.7673 42.9257 35.1132 41.9142 37.1316 40.4053L37.1544 43.2898C37.1553 43.414 37.2231 43.5281 37.3321 43.588L39.184 44.609C39.2803 44.662 39.3559 44.7458 39.3993 44.847L41.4115 49.5669C41.5351 49.8567 42.1373 50.0351 42.5281 49.9792L43.9372 49.8258C44.342 49.7001 44.6982 49.1319 44.5981 48.8603L42.1231 41.7606L48.779 44.1746C49.2961 44.3615 49.9374 44.1327 50.1 43.4838L50.1742 42.467C50.2025 41.8304 50.1149 41.2574 49.5558 41.0142L44.9167 38.915C44.8153 38.869 44.7313 38.7919 44.6769 38.6948L43.7422 37.0211C43.7081 36.9601 43.6587 36.9091 43.599 36.8729C43.5392 36.8367 43.471 36.8167 43.4012 36.8149L40.6809 36.744C42.1316 34.6829 43.0751 32.3083 43.4345 29.8136L45.4916 31.8385C45.5351 31.8813 45.5892 31.9117 45.6483 31.9267C45.7074 31.9417 45.7695 31.9407 45.8281 31.9238L47.8596 31.3362C47.9653 31.3055 48.0782 31.3112 48.1802 31.3523L52.9405 33.2665C53.2327 33.3843 53.7848 33.0846 54.0216 32.769L54.9095 31.6638C55.107 31.2889 54.9568 30.6351 54.694 30.514H54.6943ZM39.0448 25.7045H35.6213C35.3763 24.5923 34.9043 23.5426 34.2349 22.6213L36.6345 20.2215C37.8741 21.7754 38.7279 23.651 39.0448 25.7045ZM31.9721 20.4887C31.013 19.8744 29.9373 19.4651 28.8124 19.2865V15.8934C30.8304 16.1185 32.7541 16.8687 34.3917 18.0692L31.9721 20.4887ZM31.5553 27.5001C31.5553 29.7397 29.7399 31.5553 27.5002 31.5553C25.2606 31.5553 23.445 29.7397 23.445 27.5001C23.445 25.2606 25.2604 23.445 27.5002 23.445C29.7399 23.445 31.5553 25.2604 31.5553 27.5001ZM25.7045 15.9555V19.3791C24.5924 19.6242 23.5428 20.0961 22.6215 20.7654L20.2217 18.3656C21.7756 17.126 23.6506 16.2724 25.7045 15.9555ZM20.4887 23.0282C19.8746 23.9873 19.4653 25.0631 19.2867 26.1879H15.8934C16.1186 24.1699 16.8688 22.2461 18.0692 20.6084L20.4887 23.0282ZM15.9555 29.2958H19.3793C19.6243 30.4079 20.0963 31.4575 20.7657 32.3788L18.3659 34.7786C17.1262 33.2248 16.2724 31.3495 15.9555 29.2958ZM23.0282 34.5115C23.9873 35.1258 25.0631 35.5351 26.1879 35.7138V39.1068C24.17 38.8818 22.2463 38.1316 20.6088 36.9311L23.0282 34.5115ZM29.296 39.0447V35.6212C30.4081 35.376 31.4577 34.9041 32.3791 34.2348L34.7787 36.6344C33.2249 37.8741 31.3497 38.7278 29.296 39.0447ZM34.5118 31.9721C35.1259 31.0129 35.5351 29.9372 35.7139 28.8124H39.1071C38.8819 30.8303 38.1317 32.754 36.9314 34.3917L34.5118 31.9721Z" fill="#EDEBDF"/>
</svg>
