<svg width="73" height="50" viewBox="0 0 73 50" fill="none" xmlns="http://www.w3.org/2000/svg">
<path d="M49.8985 5.06209C49.5488 5.06209 49.3115 5.10505 49.0651 5.16334V5.20322H49.1077C49.272 5.5223 49.5518 5.75548 49.7586 6.04081C49.9229 6.36909 50.0628 6.69737 50.227 7.02258L50.2696 6.97656C50.5555 6.77407 50.6955 6.44886 50.6955 5.9549C50.5738 5.8107 50.5555 5.6665 50.4521 5.52537C50.3305 5.31981 50.0689 5.21856 49.9046 5.05596L49.8985 5.06209ZM17.5504 45.5421H14.7308C14.6515 41.0222 14.3775 36.5079 13.9095 32.0119H13.8852L9.59646 45.5421H7.45208L3.19375 32.0119H3.16333C2.83025 36.5149 2.63245 41.027 2.57021 45.5421H0C0.167292 39.5103 0.584 33.8528 1.24708 28.5757H4.745L8.80562 41.0443H8.82996L12.9271 28.5757H16.2577C16.9938 34.7579 17.4257 40.4184 17.5595 45.5421H17.5504ZM29.7688 33.0244C28.619 39.2986 27.1043 43.8639 25.2306 46.708C23.7645 48.9047 22.1585 50 20.4157 50C19.9503 50 19.3815 49.8589 18.6941 49.5766V48.061C19.0287 48.1131 19.4241 48.1408 19.8682 48.1408C20.6833 48.1408 21.3373 47.9106 21.8361 47.4596C22.4353 46.9074 22.7334 46.2876 22.7334 45.6035C22.7334 45.1279 22.4992 44.1615 22.0338 42.7072L18.9496 33.0244H21.7175L23.9288 40.265C24.4276 41.9095 24.6375 43.057 24.5523 43.7105C25.769 40.4461 26.6146 36.8779 27.0921 33.0244H29.7688ZM67.2573 45.5421H59.2578V28.5757H61.9496V43.4558H67.2573V45.5421ZM57.159 45.9563L54.0687 44.4223C54.3424 44.1891 54.607 43.9375 54.8443 43.6552C56.1613 42.1028 56.8153 39.7956 56.8153 36.7429C56.8153 31.1283 54.6314 28.318 50.2605 28.318C48.1192 28.318 46.4463 29.0298 45.2417 30.4564C43.9338 32.015 43.2768 34.3099 43.2768 37.3442C43.2768 40.3264 43.8548 42.517 45.0228 43.9099C46.0873 45.1678 47.6903 45.7968 49.8377 45.7968C50.6407 45.7968 51.3768 45.6955 52.0429 45.4961L56.0731 47.8646L57.1681 45.9563H57.159ZM47.1458 42.1458C46.4615 41.0413 46.1208 39.2618 46.1208 36.8196C46.1208 32.5458 47.4105 30.4074 49.9837 30.4074C51.3312 30.4074 52.3258 30.9197 52.9554 31.9414C53.6367 33.052 53.9774 34.8131 53.9774 37.2277C53.9774 41.5352 52.6878 43.6951 50.1145 43.6951C48.761 43.6951 47.7724 43.1828 47.1398 42.1611L47.1458 42.1458ZM42.1028 40.8418C42.1028 42.2838 41.5796 43.4681 40.5333 44.3885C39.4869 45.3089 38.0908 45.7691 36.3236 45.7691C34.672 45.7691 33.0873 45.2414 31.539 44.1891L32.2599 42.7287C33.5922 43.4037 34.7936 43.735 35.8795 43.735C36.8893 43.735 37.6832 43.511 38.2611 43.06C38.55 42.8404 38.7832 42.555 38.9418 42.227C39.1004 41.8991 39.1798 41.538 39.1736 41.1732C39.1736 40.1607 38.474 39.3017 37.2026 38.5807C36.0225 37.9272 33.6652 36.565 33.6652 36.565C32.3816 35.6231 31.7428 34.6137 31.7428 32.9538C31.7428 31.5732 32.2204 30.4687 33.1724 29.625C34.1305 28.7721 35.3624 28.3518 36.8833 28.3518C38.4406 28.3518 39.8641 28.769 41.1416 29.6097L40.4937 31.0701C39.4729 30.6178 38.3722 30.3778 37.2574 30.3644C36.3966 30.3644 35.7305 30.573 35.2681 30.9964C35.0335 31.1925 34.8444 31.438 34.714 31.7158C34.5837 31.9936 34.5154 32.2968 34.5138 32.6041C34.5138 33.6104 35.2255 34.4756 36.5395 35.2119C37.7349 35.8716 40.15 37.2675 40.15 37.2675C41.467 38.2033 42.121 39.2004 42.121 40.851L42.1028 40.8418ZM70.6397 22.8875C69.0124 22.8446 67.7501 23.0103 66.6946 23.4643C66.3905 23.5871 65.9038 23.5871 65.8612 23.9767C66.0285 24.1393 66.0528 24.4062 66.1958 24.6333C66.4391 25.0444 66.8589 25.5936 67.2482 25.882C67.674 26.2194 68.0999 26.5447 68.547 26.8331C69.3378 27.324 70.2351 27.6154 71.0108 28.1094C71.4518 28.3978 71.902 28.7629 72.3491 29.0697C72.5711 29.2231 72.7141 29.4992 73 29.5974V29.536C72.8601 29.3519 72.8175 29.085 72.6806 28.8795C72.4768 28.6739 72.273 28.4898 72.0723 28.2873C71.4751 27.4935 70.7624 26.7953 69.9583 26.2164C69.3074 25.7684 67.8839 25.1426 67.6162 24.3909L67.5767 24.3479C68.0208 24.308 68.55 24.1454 68.9759 24.0227C69.6663 23.8386 70.299 23.8785 71.0138 23.6975C71.3362 23.6147 71.6617 23.5134 71.9871 23.4091V23.225C71.6221 22.8569 71.3484 22.3568 70.9712 22.0131C69.9185 21.0849 68.7957 20.2407 67.6132 19.4881C66.9745 19.077 66.1654 18.8131 65.4932 18.4634C65.2498 18.3407 64.8422 18.2793 64.7023 18.0737C64.3373 17.6258 64.1244 17.0306 63.8659 16.4968C63.2686 15.3281 62.7137 14.1379 62.2021 12.9286C61.8371 12.1248 61.615 11.324 61.1679 10.5877C59.0692 7.09929 56.797 4.98539 53.3022 2.91752C52.5509 2.48799 51.6505 2.30391 50.6985 2.07687C50.1905 2.05232 49.6826 2.01551 49.1777 1.99403C48.8431 1.84983 48.5207 1.46019 48.2347 1.27304C47.0789 0.536701 44.0859 -1.05869 43.2342 1.05214C42.6867 2.38367 44.0464 3.69681 44.5178 4.37178C44.8676 4.84119 45.3087 5.3781 45.552 5.90581C45.695 6.26171 45.7345 6.62681 45.8775 6.99804C46.1999 7.90005 46.5071 8.90637 46.9329 9.75009C47.155 10.1796 47.3983 10.6306 47.6842 11.0172C47.8485 11.2412 48.1283 11.3455 48.1922 11.7137C47.9062 12.1309 47.888 12.7384 47.7238 13.2477C46.9938 15.5702 47.2797 18.4419 48.3138 20.1508C48.6393 20.6601 49.4149 21.7892 50.4521 21.3566C51.3646 20.9884 51.1639 19.8225 51.4255 18.7947C51.4863 18.5493 51.4468 18.3867 51.5715 18.221V18.267C51.8574 18.8438 52.1433 19.393 52.4049 19.9698C53.0315 20.9761 54.1265 22.0193 55.042 22.7157C55.5287 23.0839 55.915 23.722 56.5233 23.9491V23.8877H56.4777C56.3469 23.7098 56.1735 23.6239 56.0093 23.4797C55.6236 23.0989 55.2677 22.6886 54.9447 22.2524C54.0877 21.0713 53.3278 19.8215 52.6725 18.5155C52.338 17.8713 52.0581 17.1779 51.7905 16.5428C51.6688 16.2973 51.6688 15.9292 51.465 15.8064C51.1608 16.2544 50.7137 16.644 50.4917 17.1963C50.1054 18.0799 50.0658 19.166 49.9198 20.295C49.8377 20.3165 49.8773 20.295 49.8377 20.338C49.1868 20.1784 48.9647 19.4973 48.7214 18.9267C48.1131 17.4693 48.0127 15.1284 48.5389 13.4502C48.6819 13.0206 49.2902 11.6646 49.0469 11.2534C48.9191 10.8638 48.5176 10.6398 48.2956 10.3238C48.01 9.91252 47.7654 9.47369 47.5656 9.01376C47.0789 7.8663 46.8356 6.59612 46.3063 5.44867C46.063 4.91789 45.6372 4.36257 45.2904 3.87475C44.9041 3.3225 44.4783 2.93286 44.1711 2.27936C44.0707 2.05539 43.9277 1.68416 44.089 1.43871C44.1315 1.27304 44.2167 1.20861 44.3749 1.16259C44.6425 0.941686 45.3938 1.23008 45.6585 1.35281C46.4098 1.65961 47.0424 1.94801 47.672 2.37754C47.958 2.58003 48.2652 2.96968 48.6302 3.07092H49.056C49.7069 3.21512 50.44 3.11387 51.0483 3.29489C52.1281 3.64465 53.1014 4.15395 53.9744 4.7062C56.6642 6.43939 58.8521 8.85898 60.3162 11.7198C60.5596 12.1923 60.666 12.6249 60.8881 13.1158C61.3139 14.1282 61.8401 15.1499 62.272 16.1286C62.6979 17.095 63.1085 18.0799 63.7199 18.8806C64.024 19.3102 65.2468 19.5341 65.7943 19.7581C66.1988 19.9422 66.8285 20.1109 67.1935 20.3349C67.893 20.7644 68.5744 21.2553 69.2314 21.7278C69.566 21.961 70.5788 22.4733 70.6397 22.8875Z" fill="#EDEBDF"/>
</svg>
