<svg width="86" height="55" viewBox="0 0 86 55" fill="none" xmlns="http://www.w3.org/2000/svg">
<path d="M59.0903 0C58.8696 0 58.6579 0.0883364 58.5018 0.245577C58.3457 0.402818 58.2581 0.616084 58.2581 0.838457V16.2018L54.8014 14.1699C54.588 14.0428 54.3447 13.9757 54.0968 13.9757C53.8489 13.9757 53.6055 14.0428 53.3921 14.1699L45.0862 19.0497C44.8738 19.1732 44.6975 19.3508 44.5747 19.5647C44.452 19.7786 44.3873 20.0212 44.3871 20.2683V30.0391C44.3871 30.5422 44.6534 31.0061 45.0862 31.2576L53.3921 36.1375C53.6055 36.2646 53.8489 36.3316 54.0968 36.3316C54.3447 36.3316 54.588 36.2646 54.8014 36.1375L63.1074 31.2576C63.3197 31.1341 63.4961 30.9565 63.6188 30.7426C63.7415 30.5287 63.8062 30.2861 63.8064 30.0391V3.43767C63.8058 3.19393 63.7419 2.95458 63.6213 2.74332C63.5006 2.53205 63.3273 2.35618 63.1185 2.23309L59.5037 0.114589C59.3793 0.0405435 59.2376 0.0010077 59.0931 0H59.0903ZM31.9032 13.9799C31.6558 13.9795 31.4127 14.0451 31.1986 14.1699L22.8926 19.0497C22.6803 19.1732 22.5039 19.3508 22.3812 19.5647C22.2585 19.7786 22.1938 20.0212 22.1935 20.2683V30.0391C22.1935 30.5422 22.4599 31.0061 22.8926 31.2576L31.1986 36.1375C31.6341 36.389 32.1695 36.389 32.6079 36.1375L40.9138 31.2576C41.1262 31.1341 41.3025 30.9565 41.4253 30.7426C41.548 30.5287 41.6127 30.2861 41.6129 30.0391V20.2683C41.6132 20.0211 41.5488 19.7783 41.426 19.5643C41.3032 19.3503 41.1265 19.1728 40.9138 19.0497L32.6079 14.1699C32.3937 14.0451 32.1506 13.9795 31.9032 13.9799ZM76.2903 13.9799C76.0428 13.9786 75.7995 14.0442 75.5857 14.1699L67.2797 19.0497C67.0674 19.1732 66.891 19.3508 66.7683 19.5647C66.6456 19.7786 66.5809 20.0212 66.5806 20.2683V30.0391C66.5806 30.5422 66.847 31.0061 67.2797 31.2576L75.336 36.1626C75.5489 36.2928 75.7928 36.3625 76.0419 36.3645C76.291 36.3665 76.5359 36.3006 76.7508 36.1738L80.7124 33.8541C80.8056 33.7988 80.8828 33.7199 80.9365 33.6253C80.9902 33.5307 81.0184 33.4236 81.0184 33.3147C81.0184 33.2057 80.9902 33.0986 80.9365 33.004C80.8828 32.9094 80.8056 32.8306 80.7124 32.7752L72.129 27.6802V22.6663L76.2903 20.2264L80.4516 22.6663V26.1598C80.4516 26.6266 80.84 26.6992 81.1008 26.5427C82.5032 25.7178 83.9069 24.8952 85.312 24.0749C85.521 23.952 85.6945 23.7762 85.8152 23.5648C85.9359 23.3535 85.9996 23.1141 86 22.8703V20.2711C86.0003 20.0239 85.9359 19.7811 85.8131 19.5671C85.6903 19.3531 85.5136 19.1756 85.3009 19.0525L76.995 14.1727C76.781 14.0474 76.5378 13.9818 76.2903 13.9827V13.9799ZM9.70968 13.9854C9.46215 13.9842 9.21882 14.0498 9.00503 14.1755L0.699097 19.0497C0.486491 19.1744 0.310049 19.353 0.187379 19.5678C0.0647085 19.7826 9.96816e-05 20.0261 0 20.2739V32.7473C0 33.3566 0.65471 33.7339 1.17626 33.4292L4.86039 31.2688C5.06962 31.1455 5.2432 30.9692 5.36389 30.7574C5.48458 30.5456 5.54818 30.3057 5.54839 30.0614V22.6746L9.70968 20.2291L13.871 22.6746V30.0614C13.8714 30.3052 13.9351 30.5447 14.0558 30.756C14.1765 30.9673 14.35 31.1432 14.559 31.266L18.2431 33.4292C18.3621 33.4991 18.4972 33.5361 18.6349 33.5364C18.7726 33.5368 18.9079 33.5006 19.0272 33.4314C19.1466 33.3622 19.2457 33.2625 19.3145 33.1424C19.3834 33.0223 19.4195 32.886 19.4194 32.7473V20.2739C19.4193 20.0261 19.3546 19.7826 19.232 19.5678C19.1093 19.353 18.9329 19.1744 18.7203 19.0497L10.4143 14.1755C10.2005 14.0498 9.9572 13.9842 9.70968 13.9854ZM54.0968 20.2236L58.2581 22.6691V27.6383L54.0968 30.0838L49.9355 27.6383V22.6663L54.0968 20.2208V20.2236ZM76.2903 22.37L73.9128 23.7674V26.5567L76.2903 27.9485L78.6678 26.5567V23.7674L76.2903 22.37ZM42.7392 33.5326C42.451 33.531 42.1673 33.6042 41.9153 33.7451L34.1143 38.2895C33.8632 38.4329 33.6546 38.641 33.5098 38.8925C33.365 39.1439 33.2892 39.4297 33.2903 39.7205V48.7926C33.2903 49.3767 33.6149 49.9273 34.1143 50.2235L36.1672 51.4029C37.152 51.892 37.5154 51.892 37.9621 51.892C39.4324 51.892 40.2702 51.0061 40.2702 49.441V40.4779C40.2709 40.4473 40.2656 40.4169 40.2545 40.3884C40.2434 40.36 40.2268 40.3341 40.2056 40.3122C40.1844 40.2903 40.159 40.2729 40.1311 40.2611C40.1031 40.2492 40.0731 40.2431 40.0427 40.2431H39.0551C38.9933 40.2431 38.934 40.2678 38.8903 40.3119C38.8466 40.3559 38.8221 40.4156 38.8221 40.4779V49.441C38.8221 50.1201 38.1091 50.8188 36.9467 50.2347L34.8106 48.9938C34.7757 48.9717 34.7469 48.9412 34.7265 48.9051C34.7062 48.869 34.695 48.8284 34.6941 48.787V39.7149C34.6941 39.6338 34.7329 39.5388 34.8134 39.4969L42.6144 34.9664C42.6518 34.9456 42.6938 34.9347 42.7365 34.9347C42.7791 34.9347 42.8211 34.9456 42.8585 34.9664L50.6679 39.4941C50.7483 39.5388 50.7872 39.6198 50.7872 39.7149V48.787C50.787 48.8304 50.7759 48.8732 50.7551 48.9113C50.7343 48.9494 50.7043 48.9816 50.6679 49.005L42.8585 53.5522C42.8211 53.573 42.7791 53.5839 42.7365 53.5839C42.6938 53.5839 42.6518 53.573 42.6144 53.5522L40.6225 52.356C40.567 52.328 40.4838 52.3141 40.4311 52.342C40.066 52.5778 39.6701 52.7612 39.2548 52.887C39.1189 52.9289 38.9358 53.0128 39.327 53.2308L41.9153 54.7819C42.1684 54.9207 42.4511 54.9955 42.7392 54.9999C43.0263 55.0028 43.3082 54.9233 43.5521 54.7707L51.3559 50.2235C51.6069 50.0801 51.8156 49.872 51.9604 49.6205C52.1052 49.3691 52.1809 49.0833 52.1798 48.7926V39.7205C52.1762 39.4307 52.0984 39.1468 51.9541 38.8961C51.8098 38.6455 51.6037 38.4365 51.3559 38.2895L43.5521 33.7479C43.3044 33.6063 43.024 33.5331 42.7392 33.5354V33.5326ZM54.9096 37.7193C54.7129 37.7197 54.5182 37.7591 54.3365 37.8353C54.1549 37.9115 53.99 38.023 53.8511 38.1634C53.5707 38.4469 53.4136 38.8311 53.4143 39.2314C53.4151 39.6316 53.5736 40.0152 53.8551 40.2977C54.1365 40.5802 54.5178 40.7385 54.9152 40.7378C55.3125 40.737 55.6932 40.5773 55.9736 40.2938C56.2541 40.0102 56.4112 39.626 56.4104 39.2258C56.4097 38.8255 56.2512 38.4419 55.9697 38.1594C55.6883 37.8769 55.3069 37.7186 54.9096 37.7193ZM54.893 37.9597C55.5976 37.9597 56.1691 38.5187 56.1691 39.2258C56.1641 39.5652 56.028 39.8892 55.7898 40.1293C55.5515 40.3693 55.2299 40.5064 54.893 40.5114C54.5579 40.5077 54.238 40.3703 54.0035 40.1293C53.7689 39.8882 53.6388 39.5633 53.6418 39.2258C53.6407 39.0597 53.6723 38.895 53.7347 38.7412C53.7971 38.5875 53.8891 38.4477 54.0055 38.33C54.1218 38.2123 54.2601 38.119 54.4124 38.0554C54.5648 37.9919 54.7281 37.9593 54.893 37.9597ZM54.3465 38.3705V40.067H54.6655V39.3907H54.9651C55.0872 39.3907 55.1149 39.441 55.1426 39.536C55.1426 39.55 55.1926 39.9916 55.2065 40.0726H55.5532C55.5092 39.9253 55.4822 39.7734 55.4728 39.6198C55.4339 39.4018 55.4228 39.2509 55.1926 39.2369C55.3146 39.195 55.5172 39.1307 55.5172 38.8177C55.5172 38.3677 55.1288 38.3705 54.9263 38.3705H54.3465ZM54.6655 38.6416H54.9374C55.0206 38.6416 55.1815 38.6416 55.1815 38.8708C55.1815 38.9659 55.1399 39.1224 54.9207 39.1168H54.6655V38.6416ZM44.831 40.0279C42.6033 40.0279 41.28 40.9865 41.28 42.5628C41.28 44.29 42.6061 44.7512 44.7394 44.9664C47.2917 45.2263 47.4914 45.5952 47.4914 46.0983C47.4914 46.9815 46.7868 47.3476 45.1389 47.3476C43.0721 47.3476 42.6199 46.8334 42.4701 45.7993C42.4563 45.6875 42.3592 45.6064 42.2371 45.6064H41.2217C41.1914 45.6064 41.1614 45.6125 41.1334 45.6244C41.1054 45.6362 41.0801 45.6536 41.0589 45.6755C41.0377 45.6974 41.0211 45.7233 41.01 45.7518C40.9989 45.7802 40.9935 45.8106 40.9943 45.8412C40.9943 47.1604 41.71 48.7394 45.125 48.7394C47.6301 48.7394 49.0477 47.7613 49.0477 46.0452C49.0477 44.3459 47.9103 43.8932 45.5079 43.5662C43.0777 43.2392 42.8363 43.0743 42.8363 42.5013C42.8363 42.0262 43.0361 41.403 44.8337 41.403C46.4372 41.403 47.0364 41.7579 47.2806 42.8451C47.3083 42.9569 47.3832 43.0212 47.4914 43.0212H48.504C48.5706 43.0212 48.6288 42.9932 48.6677 42.9541C48.7093 42.901 48.7343 42.8479 48.7232 42.7808C48.5623 40.9027 47.3305 40.0279 44.831 40.0279Z" fill="#EDEBDF"/>
</svg>
