<svg width="54" height="54" viewBox="0 0 54 54" fill="none" xmlns="http://www.w3.org/2000/svg">
<path d="M30.4368 0.222332C15.6491 -1.67445 2.11922 8.77471 0.222378 23.5642C-1.67446 38.3514 8.77278 51.8786 23.5627 53.7777C38.3527 55.6744 51.8848 45.2253 53.7771 30.4358C55.6762 15.6486 45.229 2.12136 30.4368 0.222332ZM35.9968 17.0638C35.4957 17.0704 35.017 17.2722 34.6625 17.6264L24.6428 27.6458L23.952 26.955L22.5052 25.5082C32.3809 15.6621 34.1607 15.5676 35.9968 17.0638ZM25.0545 28.0013L35.045 18.0111C35.1759 17.8738 35.3335 17.7646 35.5081 17.6903C35.6827 17.6159 35.8706 17.578 36.0604 17.5788C36.2501 17.5795 36.4377 17.619 36.6117 17.6948C36.7857 17.7705 36.9424 17.881 37.0722 18.0194C37.202 18.1578 37.3022 18.3212 37.3667 18.4997C37.4312 18.6781 37.4586 18.8679 37.4472 19.0573C37.4359 19.2467 37.386 19.4318 37.3006 19.6013C37.2153 19.7707 37.0963 19.921 36.9508 20.0429L26.3776 29.3243L25.0545 28.0013ZM25.7971 29.5628L23.322 30.0983C23.2924 30.105 23.2614 30.1015 23.2341 30.0884C23.2068 30.0754 23.1846 30.0535 23.1712 30.0263C23.1562 30.0003 23.1502 29.9701 23.1543 29.9403C23.1583 29.9106 23.1722 29.883 23.1937 29.862L24.645 28.4108L25.7971 29.5628ZM19.49 28.53L22.1272 25.893L24.105 27.8685L19.652 28.827C19.6149 28.8367 19.5756 28.8332 19.5408 28.8172C19.5059 28.8012 19.4777 28.7737 19.4608 28.7393C19.4398 28.7067 19.4312 28.6676 19.4366 28.6292C19.442 28.5908 19.4609 28.5556 19.49 28.53ZM11.2861 42.1607C11.2637 42.1588 11.2418 42.1524 11.2218 42.1419C11.2018 42.1314 11.184 42.1171 11.1696 42.0997C11.1552 42.0823 11.1443 42.0623 11.1377 42.0407C11.131 42.0191 11.1287 41.9965 11.1309 41.974C11.1352 41.9349 11.1526 41.8984 11.1804 41.8705H11.1849L13.3135 39.742L16.0631 42.4915L11.2861 42.1607ZM16.7427 39.3347C16.6406 39.3874 16.5593 39.4728 16.5115 39.5772C16.4638 39.6817 16.4525 39.7991 16.4794 39.9107L16.9362 41.857C16.9509 41.917 16.9455 41.9801 16.9208 42.0367C16.8961 42.0933 16.8534 42.1402 16.7994 42.1701C16.7454 42.2001 16.6831 42.2114 16.622 42.2024C16.5609 42.1934 16.5044 42.1645 16.4614 42.1202H16.4546L14.353 40.0187L13.6915 39.3549L22.1564 30.8993L26.2516 30.015L28.2182 31.9816C25.3943 34.4611 21.5331 36.9339 16.7427 39.3347ZM28.621 31.6216H28.6165L26.7286 29.7338L37.3019 20.4524C37.3997 20.3655 37.4893 20.2699 37.5696 20.1666C37.2366 23.1929 33.0042 27.468 28.621 31.6216ZM36.8496 17.0863L36.8428 17.0818C36.0989 16.3344 35.6716 15.329 35.6498 14.2747C35.628 13.2203 36.0134 12.1981 36.7258 11.4206C37.4382 10.643 38.4229 10.1699 39.4751 10.0995C40.5274 10.0291 41.5662 10.367 42.3758 11.0428L38.7532 14.6721C38.7281 14.6969 38.7081 14.7266 38.6946 14.7592C38.681 14.7918 38.674 14.8268 38.674 14.8622C38.674 14.8975 38.681 14.9325 38.6946 14.9652C38.7081 14.9978 38.7281 15.0274 38.7532 15.0523L41.5591 17.8581C40.7921 18.2388 39.925 18.3691 39.08 18.2306C38.2351 18.0922 37.4549 17.6919 36.8496 17.0863ZM42.6504 17.0863C42.4643 17.2701 42.2599 17.4344 42.0406 17.5769L39.3225 14.8611L42.7719 11.4118C44.2592 13.0318 44.2052 15.5338 42.6504 17.0863ZM42.4254 13.6123C42.3713 13.6515 42.3307 13.7066 42.3093 13.7699C42.288 13.8332 42.2868 13.9016 42.3061 13.9655C42.3862 14.1278 42.4176 14.3098 42.3964 14.4895C42.3753 14.6692 42.3025 14.8389 42.1868 14.9781C42.1611 15.0105 42.1419 15.0478 42.1306 15.0877C42.1192 15.1275 42.1159 15.1693 42.1207 15.2104C42.1255 15.2516 42.1384 15.2914 42.1586 15.3276C42.1788 15.3638 42.206 15.3957 42.2386 15.4213C42.2926 15.4637 42.359 15.4874 42.4276 15.4888C42.4731 15.4884 42.518 15.4782 42.5592 15.4587C42.6004 15.4393 42.6368 15.4112 42.6661 15.3763C42.8594 15.1441 42.9808 14.8607 43.0156 14.5606C43.0504 14.2605 42.9969 13.9568 42.8619 13.6865C42.8383 13.6527 42.8083 13.6239 42.7735 13.6019C42.7387 13.5798 42.6998 13.5649 42.6592 13.5579C42.6185 13.551 42.5769 13.5523 42.5368 13.5616C42.4967 13.5709 42.4588 13.5882 42.4254 13.6123Z" fill="#EDEBDF"/>
</svg>
