<svg width="147" height="46" viewBox="0 0 147 46" fill="none" xmlns="http://www.w3.org/2000/svg">
<path d="M23 46C10.3205 46 0 35.6795 0 23C0 10.3205 10.3205 0 23 0C35.6795 0 46 10.3205 46 23C46 35.6795 35.6795 46 23 46ZM23 42.1588C33.6044 42.1588 42.16 33.6044 42.16 23C42.16 12.3956 33.6044 3.84001 23 3.84001C20.4828 3.83609 17.9895 4.329 15.6632 5.2905C13.3368 6.25199 11.2231 7.66315 9.4431 9.4431C7.66315 11.2231 6.25199 13.3368 5.2905 15.6632C4.329 17.9895 3.83609 20.4828 3.84001 23C3.84001 33.6044 12.3956 42.1588 23 42.1588Z" fill="#EDEBDF"/>
<path fill-rule="evenodd" clip-rule="evenodd" d="M16.8514 21.9733C21.8875 17.8586 26.8148 13.6019 31.9608 9.60742C29.2619 13.7553 26.4852 17.8483 23.7863 21.995C21.4708 22.0065 19.1554 22.0065 16.8514 21.9733ZM21.1092 24.267C23.4349 24.267 25.7504 24.267 28.0658 24.3002C22.9954 28.3931 18.0921 32.683 12.9347 36.666C15.6336 32.5181 18.4103 28.4137 21.1092 24.267Z" fill="#EDEBDF"/>
<path fill-rule="evenodd" clip-rule="evenodd" d="M56.1053 30.4945C57.0496 31.0198 58.4403 31.3872 59.9888 31.3872C63.3745 31.3872 65.1852 29.707 65.1852 27.3984C65.1588 25.5087 64.083 24.3276 61.7744 23.4874C60.1468 22.9106 59.5425 22.5169 59.5425 21.7031C59.5425 20.9168 60.172 20.3651 61.328 20.3651C62.4554 20.3651 63.4798 20.7851 64.0303 21.0999L64.6598 18.8165C63.925 18.4227 62.6912 18.0553 61.2742 18.0553C58.3098 18.0553 56.4464 19.8134 56.4464 22.0705C56.4201 23.5664 57.4697 24.9319 59.9625 25.7972C61.5374 26.3488 62.0617 26.7941 62.0617 27.6605C62.0617 28.5006 61.4321 29.0775 60.0152 29.0775C58.8603 29.0775 57.4697 28.6048 56.7349 28.1596L56.1053 30.4945ZM72.5413 18.0553C68.6841 18.0553 65.9291 20.6272 65.9291 24.8254C65.9291 28.9195 68.7104 31.4124 72.3318 31.4124C75.5858 31.4124 78.8925 29.3133 78.8925 24.616C78.8925 20.7325 76.3469 18.0553 72.5413 18.0553ZM72.4634 20.4166C74.6679 20.4166 75.5595 22.7 75.5595 24.695C75.5595 27.2668 74.2741 29.0775 72.4371 29.0775C70.4685 29.0775 69.2621 27.2141 69.2621 24.7476C69.2621 22.621 70.18 20.4166 72.4634 20.4166ZM89.3984 28.3427C88.7689 28.6059 87.9814 28.8406 86.8529 28.8406C84.6485 28.8406 82.9431 27.3458 82.9431 24.7201C82.9167 22.3852 84.3852 20.5745 86.8529 20.5745C88.0078 20.5745 88.7689 20.8378 89.2931 21.0736L89.8711 18.6585C89.1363 18.3174 87.9288 18.0553 86.7476 18.0553C82.2609 18.0553 79.6364 21.0472 79.6364 24.8781C79.6364 28.8406 82.2346 31.3861 86.2234 31.3861C87.8235 31.3861 89.1626 31.045 89.8448 30.7302L89.3984 28.3427ZM94.3669 12.4905H91.1393V31.124H94.3669V26.7678L95.4692 25.4813L99.1432 31.124H103.106L97.6999 23.5664L102.424 18.3438H98.54L95.4428 22.4642C95.1018 22.9106 94.7344 23.46 94.4196 23.9601H94.3669V12.4905ZM114.058 25.6392C114.132 25.188 114.168 24.7311 114.163 24.2738C114.163 21.4661 112.799 18.0542 108.652 18.0542C104.558 18.0542 102.406 21.3872 102.406 24.9307C102.406 28.8406 104.848 31.3861 108.993 31.3861C110.83 31.3861 112.353 31.045 113.455 30.5986L112.982 28.3679C112.012 28.7353 110.936 28.9459 109.44 28.9459C107.393 28.9459 105.583 27.9478 105.502 25.6381L114.058 25.6392ZM105.504 23.3821C105.634 22.0693 106.474 20.2586 108.468 20.2586C110.62 20.2586 111.146 22.201 111.119 23.3821H105.504ZM116.219 15.456V18.3438H114.382V20.7577H116.219V26.7666C116.219 28.4468 116.534 29.6017 117.216 30.3365C117.82 30.9923 118.817 31.3861 119.997 31.3861C121.022 31.3861 121.862 31.2544 122.333 31.0713L122.282 28.6048C121.992 28.6826 121.572 28.7616 121.023 28.7616C119.788 28.7616 119.369 27.9489 119.369 26.4004V20.7577H122.439V18.3426H119.369V14.696L116.219 15.456ZM125.229 31.4113C126.436 31.4113 127.224 30.5185 127.224 29.3396C127.224 28.1046 126.411 27.2656 125.229 27.2656C124.074 27.2656 123.235 28.1309 123.235 29.3384C123.235 30.5196 124.048 31.4113 125.229 31.4113ZM131.982 31.1228V18.3426H128.728V31.1228H131.982ZM130.355 13.0158C129.28 13.0158 128.545 13.7758 128.545 14.7727C128.545 15.7445 129.253 16.5056 130.33 16.5056C131.458 16.5056 132.166 15.7445 132.166 14.7727C132.14 13.777 131.458 13.0158 130.355 13.0158ZM140.153 18.0531C136.296 18.0531 133.54 20.626 133.54 24.8243C133.54 28.9184 136.321 31.4113 139.943 31.4113C143.197 31.4113 146.504 29.3121 146.504 24.6148C146.504 20.7302 143.959 18.0531 140.153 18.0531ZM140.074 20.4154C142.278 20.4154 143.171 22.6988 143.171 24.6927C143.171 27.2645 141.885 29.0763 140.048 29.0763C138.079 29.0763 136.873 27.213 136.873 24.7453C136.873 22.6199 137.791 20.4154 140.074 20.4154Z" fill="#EDEBDF"/>
</svg>
