<svg width="36" height="40" viewBox="0 0 36 40" fill="none" xmlns="http://www.w3.org/2000/svg">
<path d="M14 13V27H16.6667V20L19.3333 27H22V13H19.3333V20L16.6667 13H14Z" fill="white"/>
<path d="M32.8749 9.11236C33.5241 9.48374 34.0632 10.0224 34.4367 10.673C34.8102 11.3235 35.0046 12.0624 34.9999 12.8136V26.6535C34.9999 28.1906 34.1631 29.608 32.8126 30.3547L20.0626 38.4679C19.4305 38.817 18.7211 39 18 39C17.2789 39 16.5694 38.817 15.9373 38.4679L3.18733 30.3547C2.52653 29.9915 1.9749 29.4563 1.59011 28.8052C1.20532 28.1541 1.00151 27.4109 1 26.6535V12.8117C1 11.2746 1.83678 9.85908 3.18733 9.11236L15.9373 1.55023C16.5881 1.18929 17.3191 1 18.0623 1C18.8054 1 19.5365 1.18929 20.1873 1.55023L32.9373 9.11236H32.8749Z" stroke="white" stroke-width="2" stroke-linecap="round" stroke-linejoin="round"/>
</svg>
