<svg width="169" height="33" viewBox="0 0 169 33" fill="none" xmlns="http://www.w3.org/2000/svg">
<path d="M57.1918 9.364C58.5238 9.364 59.6878 9.628 60.6838 10.156C61.6798 10.684 62.4478 11.428 62.9878 12.388C63.5398 13.336 63.8158 14.434 63.8158 15.682C63.8158 16.918 63.5398 18.016 62.9878 18.976C62.4478 19.936 61.6738 20.68 60.6658 21.208C59.6698 21.736 58.5118 22 57.1918 22H52.4578V9.364H57.1918ZM56.9938 19.336C58.1578 19.336 59.0638 19.018 59.7118 18.382C60.3598 17.746 60.6838 16.846 60.6838 15.682C60.6838 14.518 60.3598 13.612 59.7118 12.964C59.0638 12.316 58.1578 11.992 56.9938 11.992H55.5358V19.336H56.9938ZM64.9239 16.96C64.9239 15.928 65.1159 15.022 65.4999 14.242C65.8959 13.462 66.4299 12.862 67.1019 12.442C67.7739 12.022 68.5239 11.812 69.3519 11.812C70.0599 11.812 70.6779 11.956 71.2059 12.244C71.7459 12.532 72.1599 12.91 72.4479 13.378V11.956H75.5259V22H72.4479V20.578C72.1479 21.046 71.7279 21.424 71.1879 21.712C70.6599 22 70.0419 22.144 69.3339 22.144C68.5179 22.144 67.7739 21.934 67.1019 21.514C66.4299 21.082 65.8959 20.476 65.4999 19.696C65.1159 18.904 64.9239 17.992 64.9239 16.96ZM72.4479 16.978C72.4479 16.21 72.2319 15.604 71.7999 15.16C71.3799 14.716 70.8639 14.494 70.2519 14.494C69.6399 14.494 69.1179 14.716 68.6859 15.16C68.2659 15.592 68.0559 16.192 68.0559 16.96C68.0559 17.728 68.2659 18.34 68.6859 18.796C69.1179 19.24 69.6399 19.462 70.2519 19.462C70.8639 19.462 71.3799 19.24 71.7999 18.796C72.2319 18.352 72.4479 17.746 72.4479 16.978ZM79.3007 10.912C78.7607 10.912 78.3167 10.756 77.9687 10.444C77.6327 10.12 77.4647 9.724 77.4647 9.256C77.4647 8.776 77.6327 8.38 77.9687 8.068C78.3167 7.744 78.7607 7.582 79.3007 7.582C79.8287 7.582 80.2607 7.744 80.5967 8.068C80.9447 8.38 81.1187 8.776 81.1187 9.256C81.1187 9.724 80.9447 10.12 80.5967 10.444C80.2607 10.756 79.8287 10.912 79.3007 10.912ZM80.8307 11.956V22H77.7527V11.956H80.8307ZM86.1393 8.68V22H83.0613V8.68H86.1393ZM98.6299 11.956L92.3299 26.77H89.0179L91.3219 21.658L87.2359 11.956H90.6739L92.9959 18.238L95.2999 11.956H98.6299ZM112.557 24.16L110.937 21.982C110.457 22.078 109.989 22.126 109.533 22.126C108.345 22.126 107.253 21.85 106.257 21.298C105.273 20.746 104.487 19.978 103.899 18.994C103.323 17.998 103.035 16.882 103.035 15.646C103.035 14.41 103.323 13.3 103.899 12.316C104.487 11.332 105.273 10.564 106.257 10.012C107.253 9.46 108.345 9.184 109.533 9.184C110.721 9.184 111.807 9.46 112.791 10.012C113.787 10.564 114.567 11.332 115.131 12.316C115.707 13.3 115.995 14.41 115.995 15.646C115.995 16.726 115.773 17.716 115.329 18.616C114.897 19.504 114.291 20.242 113.511 20.83L116.283 24.16H112.557ZM106.185 15.646C106.185 16.762 106.485 17.656 107.085 18.328C107.697 18.988 108.513 19.318 109.533 19.318C110.541 19.318 111.345 18.982 111.945 18.31C112.557 17.638 112.863 16.75 112.863 15.646C112.863 14.53 112.557 13.642 111.945 12.982C111.345 12.31 110.541 11.974 109.533 11.974C108.513 11.974 107.697 12.304 107.085 12.964C106.485 13.624 106.185 14.518 106.185 15.646ZM127.661 11.956V22H124.583V20.632C124.271 21.076 123.845 21.436 123.305 21.712C122.777 21.976 122.189 22.108 121.541 22.108C120.773 22.108 120.095 21.94 119.507 21.604C118.919 21.256 118.463 20.758 118.139 20.11C117.815 19.462 117.653 18.7 117.653 17.824V11.956H120.713V17.41C120.713 18.082 120.887 18.604 121.235 18.976C121.583 19.348 122.051 19.534 122.639 19.534C123.239 19.534 123.713 19.348 124.061 18.976C124.409 18.604 124.583 18.082 124.583 17.41V11.956H127.661ZM134.444 22.144C133.46 22.144 132.572 21.934 131.78 21.514C131 21.094 130.382 20.494 129.926 19.714C129.482 18.934 129.26 18.022 129.26 16.978C129.26 15.946 129.488 15.04 129.944 14.26C130.4 13.468 131.024 12.862 131.816 12.442C132.608 12.022 133.496 11.812 134.48 11.812C135.464 11.812 136.352 12.022 137.144 12.442C137.936 12.862 138.56 13.468 139.016 14.26C139.472 15.04 139.7 15.946 139.7 16.978C139.7 18.01 139.466 18.922 138.998 19.714C138.542 20.494 137.912 21.094 137.108 21.514C136.316 21.934 135.428 22.144 134.444 22.144ZM134.444 19.48C135.032 19.48 135.53 19.264 135.938 18.832C136.358 18.4 136.568 17.782 136.568 16.978C136.568 16.174 136.364 15.556 135.956 15.124C135.56 14.692 135.068 14.476 134.48 14.476C133.88 14.476 133.382 14.692 132.986 15.124C132.59 15.544 132.392 16.162 132.392 16.978C132.392 17.782 132.584 18.4 132.968 18.832C133.364 19.264 133.856 19.48 134.444 19.48ZM146.931 19.39V22H145.365C144.249 22 143.379 21.73 142.755 21.19C142.131 20.638 141.819 19.744 141.819 18.508V14.512H140.595V11.956H141.819V9.508H144.897V11.956H146.913V14.512H144.897V18.544C144.897 18.844 144.969 19.06 145.113 19.192C145.257 19.324 145.497 19.39 145.833 19.39H146.931ZM158.113 16.816C158.113 17.104 158.095 17.404 158.059 17.716H151.093C151.141 18.34 151.339 18.82 151.687 19.156C152.047 19.48 152.485 19.642 153.001 19.642C153.769 19.642 154.303 19.318 154.603 18.67H157.879C157.711 19.33 157.405 19.924 156.961 20.452C156.529 20.98 155.983 21.394 155.323 21.694C154.663 21.994 153.925 22.144 153.109 22.144C152.125 22.144 151.249 21.934 150.481 21.514C149.713 21.094 149.113 20.494 148.681 19.714C148.249 18.934 148.033 18.022 148.033 16.978C148.033 15.934 148.243 15.022 148.663 14.242C149.095 13.462 149.695 12.862 150.463 12.442C151.231 12.022 152.113 11.812 153.109 11.812C154.081 11.812 154.945 12.016 155.701 12.424C156.457 12.832 157.045 13.414 157.465 14.17C157.897 14.926 158.113 15.808 158.113 16.816ZM154.963 16.006C154.963 15.478 154.783 15.058 154.423 14.746C154.063 14.434 153.613 14.278 153.073 14.278C152.557 14.278 152.119 14.428 151.759 14.728C151.411 15.028 151.195 15.454 151.111 16.006H154.963ZM163.823 22.144C162.947 22.144 162.167 21.994 161.483 21.694C160.799 21.394 160.259 20.986 159.863 20.47C159.467 19.942 159.245 19.354 159.197 18.706H162.239C162.275 19.054 162.437 19.336 162.725 19.552C163.013 19.768 163.367 19.876 163.787 19.876C164.171 19.876 164.465 19.804 164.669 19.66C164.885 19.504 164.993 19.306 164.993 19.066C164.993 18.778 164.843 18.568 164.543 18.436C164.243 18.292 163.757 18.136 163.085 17.968C162.365 17.8 161.765 17.626 161.285 17.446C160.805 17.254 160.391 16.96 160.043 16.564C159.695 16.156 159.521 15.61 159.521 14.926C159.521 14.35 159.677 13.828 159.989 13.36C160.313 12.88 160.781 12.502 161.393 12.226C162.017 11.95 162.755 11.812 163.607 11.812C164.867 11.812 165.857 12.124 166.577 12.748C167.309 13.372 167.729 14.2 167.837 15.232H164.993C164.945 14.884 164.789 14.608 164.525 14.404C164.273 14.2 163.937 14.098 163.517 14.098C163.157 14.098 162.881 14.17 162.689 14.314C162.497 14.446 162.401 14.632 162.401 14.872C162.401 15.16 162.551 15.376 162.851 15.52C163.163 15.664 163.643 15.808 164.291 15.952C165.035 16.144 165.641 16.336 166.109 16.528C166.577 16.708 166.985 17.008 167.333 17.428C167.693 17.836 167.879 18.388 167.891 19.084C167.891 19.672 167.723 20.2 167.387 20.668C167.063 21.124 166.589 21.484 165.965 21.748C165.353 22.012 164.639 22.144 163.823 22.144Z" fill="#99258D"/>
<path d="M17.5 5.22222C17.5 4.36764 17.1371 3.54805 16.4911 2.94377C15.8452 2.33948 14.9691 2 14.0556 2H3.72222C3.26546 2 2.82741 2.16974 2.50443 2.47188C2.18145 2.77403 2 3.18382 2 3.61111V26.1667C2 26.594 2.18145 27.0038 2.50443 27.3059C2.82741 27.608 3.26546 27.7778 3.72222 27.7778H14.0556C14.9691 27.7778 15.8452 28.1173 16.4911 28.7215C17.1371 29.3258 17.5 30.1454 17.5 31M17.5 5.22222C17.5 4.36764 17.8629 3.54805 18.5089 2.94377C19.1548 2.33948 20.0309 2 20.9444 2H31.2778C31.7345 2 32.1726 2.16974 32.4956 2.47188C32.8186 2.77403 33 3.18382 33 3.61111V26.1667C33 26.594 32.8186 27.0038 32.4956 27.3059C32.1726 27.608 31.7345 27.7778 31.2778 27.7778H20.9444C20.0309 27.7778 19.1548 28.1173 18.5089 28.7215C17.8629 29.3258 17.5 30.1454 17.5 31M17.5 5.22222V31M8.88889 8.44444H10.6111M8.88889 14.8889H10.6111M24.3889 8.44444H26.1111M24.3889 14.8889H26.1111M24.3889 21.3333H26.1111" stroke="#99258D" stroke-width="4" stroke-linecap="round" stroke-linejoin="round"/>
</svg>
