<svg width="159" height="60" viewBox="0 0 159 60" fill="none" xmlns="http://www.w3.org/2000/svg">
<path d="M56.4113 19.4765L56.8509 17.0588C56.9112 16.727 57.1983 16.4863 57.5328 16.4863C57.5342 16.4863 57.5349 16.4863 57.5363 16.4863C57.8726 16.4877 58.1586 16.7315 58.2161 17.0647L62.1708 39.9898L82.3257 39.9905C82.8086 39.9905 83.2555 39.7895 83.5852 39.425C83.9631 39.0061 84.1735 38.3813 84.1229 37.8459C83.9752 36.5555 83.0482 35.6186 81.92 35.6186H65.1C64.762 35.6186 64.4729 35.3734 64.4167 35.0374L60.479 11.6142C60.445 11.4115 60.5012 11.2043 60.6333 11.0474C60.7647 10.8904 60.9585 10.8 61.1623 10.8H77.9692C81.8032 10.8 85.5461 13.9374 86.3133 17.7913L89.9043 35.4829C90.2274 37.5542 89.7261 39.5014 88.4926 40.9668C87.2813 42.4058 85.5052 43.1983 83.4912 43.1983L83.1702 43.1973C83.164 43.1973 83.1581 43.1976 83.1511 43.1976C82.0785 43.1987 61.5645 43.2001 61.3506 43.2001C60.5743 43.2001 59.9128 42.6405 59.7756 41.8546L56.4081 19.7067C56.396 19.6307 56.3977 19.5522 56.4113 19.4765Z" fill="white"/>
<path d="M20.2116 5.47C21.3216 5.47 22.2916 5.69 23.1216 6.13C23.9516 6.57 24.5916 7.19 25.0416 7.99C25.5016 8.78 25.7316 9.695 25.7316 10.735C25.7316 11.765 25.5016 12.68 25.0416 13.48C24.5916 14.28 23.9466 14.9 23.1066 15.34C22.2766 15.78 21.3116 16 20.2116 16H16.2666V5.47H20.2116ZM20.0466 13.78C21.0166 13.78 21.7716 13.515 22.3116 12.985C22.8516 12.455 23.1216 11.705 23.1216 10.735C23.1216 9.765 22.8516 9.01 22.3116 8.47C21.7716 7.93 21.0166 7.66 20.0466 7.66H18.8316V13.78H20.0466ZM28.4551 6.76C28.0051 6.76 27.6351 6.63 27.3451 6.37C27.0651 6.1 26.9251 5.77 26.9251 5.38C26.9251 4.98 27.0651 4.65 27.3451 4.39C27.6351 4.12 28.0051 3.985 28.4551 3.985C28.8951 3.985 29.2551 4.12 29.5351 4.39C29.8251 4.65 29.9701 4.98 29.9701 5.38C29.9701 5.77 29.8251 6.1 29.5351 6.37C29.2551 6.63 28.8951 6.76 28.4551 6.76ZM29.7301 7.63V16H27.1651V7.63H29.7301ZM34.7689 7.51C35.3589 7.51 35.8739 7.63 36.3139 7.87C36.7639 8.11 37.1089 8.425 37.3489 8.815V7.63H39.9139V15.985C39.9139 16.755 39.7589 17.45 39.4489 18.07C39.1489 18.7 38.6839 19.2 38.0539 19.57C37.4339 19.94 36.6589 20.125 35.7289 20.125C34.4889 20.125 33.4839 19.83 32.7139 19.24C31.9439 18.66 31.5039 17.87 31.3939 16.87H33.9289C34.0089 17.19 34.1989 17.44 34.4989 17.62C34.7989 17.81 35.1689 17.905 35.6089 17.905C36.1389 17.905 36.5589 17.75 36.8689 17.44C37.1889 17.14 37.3489 16.655 37.3489 15.985V14.8C37.0989 15.19 36.7539 15.51 36.3139 15.76C35.8739 16 35.3589 16.12 34.7689 16.12C34.0789 16.12 33.4539 15.945 32.8939 15.595C32.3339 15.235 31.8889 14.73 31.5589 14.08C31.2389 13.42 31.0789 12.66 31.0789 11.8C31.0789 10.94 31.2389 10.185 31.5589 9.535C31.8889 8.885 32.3339 8.385 32.8939 8.035C33.4539 7.685 34.0789 7.51 34.7689 7.51ZM37.3489 11.815C37.3489 11.175 37.1689 10.67 36.8089 10.3C36.4589 9.93 36.0289 9.745 35.5189 9.745C35.0089 9.745 34.5739 9.93 34.2139 10.3C33.8639 10.66 33.6889 11.16 33.6889 11.8C33.6889 12.44 33.8639 12.95 34.2139 13.33C34.5739 13.7 35.0089 13.885 35.5189 13.885C36.0289 13.885 36.4589 13.7 36.8089 13.33C37.1689 12.96 37.3489 12.455 37.3489 11.815ZM43.0596 6.76C42.6096 6.76 42.2396 6.63 41.9496 6.37C41.6696 6.1 41.5296 5.77 41.5296 5.38C41.5296 4.98 41.6696 4.65 41.9496 4.39C42.2396 4.12 42.6096 3.985 43.0596 3.985C43.4996 3.985 43.8596 4.12 44.1396 4.39C44.4296 4.65 44.5746 4.98 44.5746 5.38C44.5746 5.77 44.4296 6.1 44.1396 6.37C43.8596 6.63 43.4996 6.76 43.0596 6.76ZM44.3346 7.63V16H41.7696V7.63H44.3346Z" fill="white"/>
<path d="M105.536 48.505C104.766 48.505 104.076 48.38 103.466 48.13C102.856 47.88 102.366 47.51 101.996 47.02C101.636 46.53 101.446 45.94 101.426 45.25H104.156C104.196 45.64 104.331 45.94 104.561 46.15C104.791 46.35 105.091 46.45 105.461 46.45C105.841 46.45 106.141 46.365 106.361 46.195C106.581 46.015 106.691 45.77 106.691 45.46C106.691 45.2 106.601 44.985 106.421 44.815C106.251 44.645 106.036 44.505 105.776 44.395C105.526 44.285 105.166 44.16 104.696 44.02C104.016 43.81 103.461 43.6 103.031 43.39C102.601 43.18 102.231 42.87 101.921 42.46C101.611 42.05 101.456 41.515 101.456 40.855C101.456 39.875 101.811 39.11 102.521 38.56C103.231 38 104.156 37.72 105.296 37.72C106.456 37.72 107.391 38 108.101 38.56C108.811 39.11 109.191 39.88 109.241 40.87H106.466C106.446 40.53 106.321 40.265 106.091 40.075C105.861 39.875 105.566 39.775 105.206 39.775C104.896 39.775 104.646 39.86 104.456 40.03C104.266 40.19 104.171 40.425 104.171 40.735C104.171 41.075 104.331 41.34 104.651 41.53C104.971 41.72 105.471 41.925 106.151 42.145C106.831 42.375 107.381 42.595 107.801 42.805C108.231 43.015 108.601 43.32 108.911 43.72C109.221 44.12 109.376 44.635 109.376 45.265C109.376 45.865 109.221 46.41 108.911 46.9C108.611 47.39 108.171 47.78 107.591 48.07C107.011 48.36 106.326 48.505 105.536 48.505ZM116.099 39.94C117.059 39.94 117.829 40.26 118.409 40.9C118.989 41.53 119.279 42.4 119.279 43.51V48.4H116.729V43.855C116.729 43.295 116.584 42.86 116.294 42.55C116.004 42.24 115.614 42.085 115.124 42.085C114.634 42.085 114.244 42.24 113.954 42.55C113.664 42.86 113.519 43.295 113.519 43.855V48.4H110.954V37.3H113.519V41.155C113.779 40.785 114.134 40.49 114.584 40.27C115.034 40.05 115.539 39.94 116.099 39.94ZM128.952 44.08C128.952 44.32 128.937 44.57 128.907 44.83H123.102C123.142 45.35 123.307 45.75 123.597 46.03C123.897 46.3 124.262 46.435 124.692 46.435C125.332 46.435 125.777 46.165 126.027 45.625H128.757C128.617 46.175 128.362 46.67 127.992 47.11C127.632 47.55 127.177 47.895 126.627 48.145C126.077 48.395 125.462 48.52 124.782 48.52C123.962 48.52 123.232 48.345 122.592 47.995C121.952 47.645 121.452 47.145 121.092 46.495C120.732 45.845 120.552 45.085 120.552 44.215C120.552 43.345 120.727 42.585 121.077 41.935C121.437 41.285 121.937 40.785 122.577 40.435C123.217 40.085 123.952 39.91 124.782 39.91C125.592 39.91 126.312 40.08 126.942 40.42C127.572 40.76 128.062 41.245 128.412 41.875C128.772 42.505 128.952 43.24 128.952 44.08ZM126.327 43.405C126.327 42.965 126.177 42.615 125.877 42.355C125.577 42.095 125.202 41.965 124.752 41.965C124.322 41.965 123.957 42.09 123.657 42.34C123.367 42.59 123.187 42.945 123.117 43.405H126.327ZM132.87 37.3V48.4H130.305V37.3H132.87ZM138.929 42.16H137.549V48.4H134.984V42.16H134.054V40.03H134.984V39.79C134.984 38.76 135.279 37.98 135.869 37.45C136.459 36.91 137.324 36.64 138.464 36.64C138.654 36.64 138.794 36.645 138.884 36.655V38.83C138.394 38.8 138.049 38.87 137.849 39.04C137.649 39.21 137.549 39.515 137.549 39.955V40.03H138.929V42.16Z" fill="white"/>
</svg>
