<svg width="147" height="50" viewBox="0 0 147 50" fill="none" xmlns="http://www.w3.org/2000/svg">
<path d="M64.6293 18.85C65.6126 18.85 66.471 19.05 67.2043 19.45C67.9543 19.85 68.5293 20.375 68.9293 21.025V19.05H73.2043V32.975C73.2043 34.2583 72.946 35.4167 72.4293 36.45C71.9293 37.5 71.1543 38.3333 70.1043 38.95C69.071 39.5667 67.7793 39.875 66.2293 39.875C64.1626 39.875 62.4876 39.3833 61.2043 38.4C59.921 37.4333 59.1876 36.1167 59.0043 34.45H63.2293C63.3626 34.9833 63.6793 35.4 64.1793 35.7C64.6793 36.0167 65.296 36.175 66.0293 36.175C66.9126 36.175 67.6126 35.9167 68.1293 35.4C68.6626 34.9 68.9293 34.0917 68.9293 32.975V31C68.5126 31.65 67.9376 32.1833 67.2043 32.6C66.471 33 65.6126 33.2 64.6293 33.2C63.4793 33.2 62.4376 32.9083 61.5043 32.325C60.571 31.725 59.8293 30.8833 59.2793 29.8C58.746 28.7 58.4793 27.4333 58.4793 26C58.4793 24.5667 58.746 23.3083 59.2793 22.225C59.8293 21.1417 60.571 20.3083 61.5043 19.725C62.4376 19.1417 63.4793 18.85 64.6293 18.85ZM68.9293 26.025C68.9293 24.9583 68.6293 24.1167 68.0293 23.5C67.446 22.8833 66.7293 22.575 65.8793 22.575C65.0293 22.575 64.3043 22.8833 63.7043 23.5C63.121 24.1 62.8293 24.9333 62.8293 26C62.8293 27.0667 63.121 27.9167 63.7043 28.55C64.3043 29.1667 65.0293 29.475 65.8793 29.475C66.7293 29.475 67.446 29.1667 68.0293 28.55C68.6293 27.9333 68.9293 27.0917 68.9293 26.025ZM89.4471 25.8C89.4471 26.2 89.4221 26.6167 89.3721 27.05H79.6971C79.7637 27.9167 80.0387 28.5833 80.5221 29.05C81.0221 29.5 81.6304 29.725 82.3471 29.725C83.4137 29.725 84.1554 29.275 84.5721 28.375H89.1221C88.8887 29.2917 88.4637 30.1167 87.8471 30.85C87.2471 31.5833 86.4887 32.1583 85.5721 32.575C84.6554 32.9917 83.6304 33.2 82.4971 33.2C81.1304 33.2 79.9137 32.9083 78.8471 32.325C77.7804 31.7417 76.9471 30.9083 76.3471 29.825C75.7471 28.7417 75.4471 27.475 75.4471 26.025C75.4471 24.575 75.7387 23.3083 76.3221 22.225C76.9221 21.1417 77.7554 20.3083 78.8221 19.725C79.8887 19.1417 81.1137 18.85 82.4971 18.85C83.8471 18.85 85.0471 19.1333 86.0971 19.7C87.1471 20.2667 87.9637 21.075 88.5471 22.125C89.1471 23.175 89.4471 24.4 89.4471 25.8ZM85.0721 24.675C85.0721 23.9417 84.8221 23.3583 84.3221 22.925C83.8221 22.4917 83.1971 22.275 82.4471 22.275C81.7304 22.275 81.1221 22.4833 80.6221 22.9C80.1387 23.3167 79.8387 23.9083 79.7221 24.675H85.0721ZM100.202 18.9C101.836 18.9 103.136 19.4333 104.102 20.5C105.086 21.55 105.577 23 105.577 24.85V33H101.327V25.425C101.327 24.4917 101.086 23.7667 100.602 23.25C100.119 22.7333 99.469 22.475 98.6523 22.475C97.8357 22.475 97.1857 22.7333 96.7023 23.25C96.219 23.7667 95.9773 24.4917 95.9773 25.425V33H91.7023V19.05H95.9773V20.9C96.4107 20.2833 96.994 19.8 97.7273 19.45C98.4607 19.0833 99.2857 18.9 100.202 18.9ZM112.823 18.875V22.425H118.548V25.725H112.823V29.575H119.298V33H108.548V15.45H119.298V18.875H112.823ZM130.323 33L127.648 29.125L125.398 33H120.773L125.373 25.875L120.648 19.05H125.448L128.123 22.9L130.373 19.05H134.998L130.323 26.075L135.123 33H130.323Z" fill="#186E54"/>
<rect width="50" height="50" rx="8" fill="#186E54"/>
<path d="M44 35.3816C43.4469 35.5998 42.8365 35.5994 42.2837 35.3803C41.731 35.1612 41.2742 34.7387 40.9996 34.1925L35.5371 26.3126L34.7454 25.211L28.4073 34.2024C28.1492 34.7257 27.7172 35.133 27.1921 35.3483C26.667 35.5635 26.0848 35.5718 25.5542 35.3717L33.721 23.9426L26.1242 13.6184C26.6704 13.413 27.2678 13.4103 27.8157 13.6107C28.3637 13.811 28.8287 14.2022 29.1325 14.7183L34.7945 22.6956L40.4882 14.7514C40.7483 14.2374 41.1804 13.841 41.7023 13.6376C42.2243 13.4342 42.7997 13.4379 43.3192 13.6481L40.371 17.7292L36.3778 23.1515C36.2669 23.2546 36.1782 23.3811 36.1174 23.5226C36.0567 23.664 36.0253 23.8173 36.0253 23.9723C36.0253 24.1273 36.0567 24.2806 36.1174 24.422C36.1782 24.5635 36.2669 24.69 36.3778 24.7932L43.9842 35.3833L44 35.3816ZM6.00319 23.8005L6.66819 20.3735C8.49535 13.5969 15.9433 10.7776 21.067 14.9727C24.0674 17.4319 24.8163 20.9135 24.6691 24.8378H7.76702C7.4931 31.8455 12.3413 36.077 18.54 33.915C19.5449 33.5377 20.4444 32.9063 21.1578 32.0773C21.8713 31.2483 22.3765 30.2476 22.6282 29.165C22.9559 28.065 23.4958 27.8767 24.487 28.1938C24.3218 29.5356 23.8671 30.8208 23.1571 31.9528C22.4471 33.0847 21.5002 34.034 20.3878 34.7292C18.5502 35.7777 16.4418 36.1933 14.3642 35.9165C12.2865 35.6398 10.3459 34.6848 8.81993 33.1883C7.31106 31.4168 6.39914 29.179 6.22327 26.8164C6.22327 26.4283 6.0966 26.0649 6.0111 25.7164C6.00339 25.0784 5.9997 24.4403 6.00002 23.8022L6.00319 23.8005ZM7.7876 23.3282H23.0731C22.9781 18.2478 19.9048 14.644 15.8056 14.611C11.2424 14.5449 7.9776 18.0695 7.77652 23.3051L7.7876 23.3282Z" fill="#5BAE95"/>
</svg>
