<svg width="134" height="53" viewBox="0 0 134 53" fill="none" xmlns="http://www.w3.org/2000/svg">
<path d="M9.5 15.25H20.5833V19H9.5V15.25ZM9.5 26.5H15.8333V30.25H9.5V26.5Z" fill="#186E54"/>
<path d="M23.75 26.4438V34H9.49996L6.33329 37.75V11.5H23.75V15.3063C24.5733 14.0125 25.65 12.9625 26.9166 12.3062V11.5C26.9166 9.4375 25.4916 7.75 23.75 7.75H6.33329C4.59163 7.75 3.18246 9.4375 3.18246 11.5L3.16663 45.25L9.49996 37.75H23.75C25.4916 37.75 26.9166 36.0625 26.9166 34V29.4625C25.6632 28.7883 24.5739 27.7499 23.75 26.4438Z" fill="#186E54"/>
<path d="M9.5 20.875H20.5833V24.625H9.5V20.875ZM31.6667 15.5875C31.1758 15.3812 30.6375 15.25 30.0833 15.25C27.455 15.25 25.3333 17.7625 25.3333 20.875C25.3333 23.9875 27.455 26.5 30.0833 26.5C32.7117 26.5 34.8333 23.9875 34.8333 20.875V9.625H38V5.875H31.6667V15.5875Z" fill="#186E54"/>
<path d="M53.0397 30.624H57.0717V33H49.9617V20.364H53.0397V30.624ZM68.7998 22.956L62.4998 37.77H59.1878L61.4918 32.658L57.4058 22.956H60.8438L63.1658 29.238L65.4698 22.956H68.7998ZM72.9909 24.63C73.3509 24.078 73.8009 23.646 74.3409 23.334C74.8809 23.01 75.4809 22.848 76.1409 22.848V26.106H75.2949C74.5269 26.106 73.9509 26.274 73.5669 26.61C73.1829 26.934 72.9909 27.51 72.9909 28.338V33H69.9129V22.956H72.9909V24.63ZM79.1601 21.912C78.6201 21.912 78.1761 21.756 77.8281 21.444C77.4921 21.12 77.3241 20.724 77.3241 20.256C77.3241 19.776 77.4921 19.38 77.8281 19.068C78.1761 18.744 78.6201 18.582 79.1601 18.582C79.6881 18.582 80.1201 18.744 80.4561 19.068C80.8041 19.38 80.9781 19.776 80.9781 20.256C80.9781 20.724 80.8041 21.12 80.4561 21.444C80.1201 21.756 79.6881 21.912 79.1601 21.912ZM80.6901 22.956V33H77.6121V22.956H80.6901ZM87.0067 33.144C86.1307 33.144 85.3507 32.994 84.6667 32.694C83.9827 32.394 83.4427 31.986 83.0467 31.47C82.6507 30.942 82.4287 30.354 82.3807 29.706H85.4227C85.4587 30.054 85.6207 30.336 85.9087 30.552C86.1967 30.768 86.5507 30.876 86.9707 30.876C87.3547 30.876 87.6487 30.804 87.8527 30.66C88.0687 30.504 88.1767 30.306 88.1767 30.066C88.1767 29.778 88.0267 29.568 87.7267 29.436C87.4267 29.292 86.9407 29.136 86.2687 28.968C85.5487 28.8 84.9487 28.626 84.4687 28.446C83.9887 28.254 83.5747 27.96 83.2267 27.564C82.8787 27.156 82.7047 26.61 82.7047 25.926C82.7047 25.35 82.8607 24.828 83.1727 24.36C83.4967 23.88 83.9647 23.502 84.5767 23.226C85.2007 22.95 85.9387 22.812 86.7907 22.812C88.0507 22.812 89.0407 23.124 89.7607 23.748C90.4927 24.372 90.9127 25.2 91.0207 26.232H88.1767C88.1287 25.884 87.9727 25.608 87.7087 25.404C87.4567 25.2 87.1207 25.098 86.7007 25.098C86.3407 25.098 86.0647 25.17 85.8727 25.314C85.6807 25.446 85.5847 25.632 85.5847 25.872C85.5847 26.16 85.7347 26.376 86.0347 26.52C86.3467 26.664 86.8267 26.808 87.4747 26.952C88.2187 27.144 88.8247 27.336 89.2927 27.528C89.7607 27.708 90.1687 28.008 90.5167 28.428C90.8767 28.836 91.0627 29.388 91.0747 30.084C91.0747 30.672 90.9067 31.2 90.5707 31.668C90.2467 32.124 89.7727 32.484 89.1487 32.748C88.5367 33.012 87.8227 33.144 87.0067 33.144ZM98.5558 30.39V33H96.9898C95.8738 33 95.0038 32.73 94.3798 32.19C93.7558 31.638 93.4438 30.744 93.4438 29.508V25.512H92.2198V22.956H93.4438V20.508H96.5218V22.956H98.5378V25.512H96.5218V29.544C96.5218 29.844 96.5938 30.06 96.7378 30.192C96.8818 30.324 97.1218 30.39 97.4578 30.39H98.5558Z" fill="#186E54"/>
</svg>
