<svg width="50" height="56" viewBox="0 0 50 56" fill="none" xmlns="http://www.w3.org/2000/svg">
<path d="M16 13V44H22V28.5L28 44H34V13H28V28.5L22 13H16Z" fill="#69533E"/>
<path d="M45.9999 12.5281C46.9164 13.0558 47.6774 13.8213 48.2047 14.7458C48.732 15.6702 49.0065 16.7203 48.9999 17.7878V37.4549C48.9999 39.6393 47.8185 41.6535 45.9119 42.7146L27.9119 54.2438C27.0196 54.7399 26.018 55 24.9999 55C23.9819 55 22.9803 54.7399 22.0879 54.2438L4.08799 42.7146C3.15511 42.1984 2.37633 41.4379 1.8331 40.5127C1.28986 39.5874 1.00214 38.5313 1 37.4549V17.7851C1 15.6007 2.18133 13.5892 4.08799 12.5281L22.0879 1.78191C23.0067 1.269 24.0388 1 25.0879 1C26.1371 1 27.1692 1.269 28.0879 1.78191L46.0879 12.5281H45.9999Z" stroke="#69533E" stroke-width="2" stroke-linecap="round" stroke-linejoin="round"/>
</svg>
