<svg width="45" height="60" viewBox="0 0 45 60" fill="none" xmlns="http://www.w3.org/2000/svg">
<path d="M11.2551 0H17.7001V2.67671H13.9501V5.35341H17.7001V8.03012H11.2551V0ZM18.9876 0H25.4351V2.32908H21.6851V2.79341H25.4351V8.14682H18.9876V5.70352H22.7376V5.23671H18.9876V0ZM26.7251 0H33.1676V2.32908H29.4176V2.79341H33.1676V8.14682H26.7251V5.70352H30.4751V5.23671H26.7251V0Z" fill="#EDEBDF"/>
<path fill-rule="evenodd" clip-rule="evenodd" d="M22.4775 59.9999L5.1175 55.2126L0 12.1196H45L39.885 55.2077L22.4775 59.9999ZM10.1175 31.6263L10.595 36.9102H29.0375L28.42 43.7634L22.485 45.3575H22.48L16.555 43.7683L16.175 39.5546H10.8325L11.5775 47.8529L22.4775 50.8574L33.395 47.8529L34.725 33.0441L34.855 31.6263L35.815 20.9269H9.16L9.645 26.2133H29.985L29.5 31.6263H10.1175Z" fill="#EDEBDF"/>
</svg>
