<svg width="28" height="39" viewBox="0 0 28 39" fill="none" xmlns="http://www.w3.org/2000/svg">
<path d="M6.46154 0C4.74783 0 3.10432 0.616338 1.89254 1.71343C0.68077 2.81051 2.45862e-06 4.29848 2.45862e-06 5.85C2.45862e-06 7.40152 0.68077 8.88949 1.89254 9.98657C3.10432 11.0837 4.74783 11.7 6.46154 11.7H21.5385C23.2522 11.7 24.8957 11.0837 26.1075 9.98657C27.3192 8.88949 28 7.40152 28 5.85C28 4.29848 27.3192 2.81051 26.1075 1.71343C24.8957 0.616338 23.2522 0 21.5385 0H6.46154ZM21.5385 13.65C19.8248 13.65 18.1812 14.2663 16.9695 15.3634C15.7577 16.4605 15.0769 17.9485 15.0769 19.5C15.0769 21.0515 15.7577 22.5395 16.9695 23.6366C18.1812 24.7337 19.8248 25.35 21.5385 25.35C23.2522 25.35 24.8957 24.7337 26.1075 23.6366C27.3192 22.5395 28 21.0515 28 19.5C28 17.9485 27.3192 16.4605 26.1075 15.3634C24.8957 14.2663 23.2522 13.65 21.5385 13.65ZM2.45862e-06 19.5C2.45862e-06 17.9485 0.68077 16.4605 1.89254 15.3634C3.10432 14.2663 4.74783 13.65 6.46154 13.65H12.9231V25.35H6.46154C4.74783 25.35 3.10432 24.7337 1.89254 23.6366C0.68077 22.5395 2.45862e-06 21.0515 2.45862e-06 19.5ZM6.46154 27.3C5.18357 27.3 3.9343 27.6431 2.8717 28.2859C1.80911 28.9287 0.980917 29.8424 0.491858 30.9113C0.00279969 31.9802 -0.12516 33.1565 0.12416 34.2913C0.373479 35.4261 0.988881 36.4684 1.89254 37.2866C2.79621 38.1047 3.94754 38.6619 5.20096 38.8876C6.45437 39.1133 7.75357 38.9975 8.93426 38.5547C10.115 38.1119 11.1241 37.3621 11.8341 36.4001C12.5441 35.4381 12.9231 34.307 12.9231 33.15V27.3H6.46154Z" fill="#EDEBDF"/>
</svg>
