<svg width="42" height="37" viewBox="0 0 42 37" fill="none" xmlns="http://www.w3.org/2000/svg">
<path d="M35.4008 25.2659C35.5779 25.162 35.7252 25.0126 35.8278 24.8324C35.9305 24.652 35.9848 24.4472 35.9853 24.2385L36.0063 17.3576C36.0067 17.1489 36.061 16.9441 36.1638 16.7636C36.2668 16.5833 36.4147 16.4338 36.5925 16.3302L40.25 14.1846C40.4274 14.0812 40.6284 14.0271 40.8328 14.0277C41.0375 14.0282 41.2384 14.0835 41.4155 14.1882C41.5926 14.2921 41.7398 14.4415 41.8425 14.6216C41.9447 14.8022 41.9984 15.007 41.9983 15.2155V27.7254C41.9981 27.9346 41.9438 28.14 41.8409 28.321C41.738 28.502 41.59 28.6521 41.412 28.7563L27.5993 36.8429C27.4229 36.9458 27.2232 37 27.02 37C26.8168 37 26.6171 36.9458 26.4408 36.8429L15.6013 30.5256C15.4226 30.4217 15.2741 30.2715 15.1708 30.0904C15.0675 29.9088 15.0131 29.7027 15.0133 29.4929V23.1844C15.0133 23.1773 15.0203 23.1737 15.0273 23.1773C15.0343 23.1809 15.0413 23.1773 15.0413 23.1684V23.1613C15.0413 23.1559 15.0448 23.1523 15.0483 23.1488L23.9768 17.923C23.9838 17.9176 23.9803 17.9051 23.9715 17.9051C23.9701 17.9051 23.9688 17.9048 23.9676 17.9042C23.9664 17.9036 23.9653 17.9027 23.9645 17.9016C23.9637 17.9006 23.9632 17.8994 23.9629 17.8982C23.9626 17.8969 23.9625 17.8957 23.9628 17.8944L23.9803 11.7108C23.9811 11.5014 23.9276 11.2954 23.8253 11.1138C23.723 10.9321 23.5754 10.7812 23.3975 10.6764C23.2201 10.572 23.0188 10.517 22.8139 10.517C22.609 10.517 22.4077 10.572 22.2303 10.6764L15.596 14.5752C15.419 14.679 15.2183 14.7336 15.0141 14.7336C14.8099 14.7336 14.6093 14.679 14.4323 14.5752L7.77525 10.6692C7.59796 10.5655 7.39705 10.5111 7.19264 10.5114C6.98822 10.5117 6.78746 10.5667 6.61045 10.6709C6.43344 10.7751 6.28638 10.9248 6.18399 11.1051C6.0816 11.2855 6.02746 11.49 6.027 11.6983V22.8759C6.02707 23.0843 5.97344 23.289 5.87148 23.4696C5.76951 23.6502 5.62279 23.8003 5.446 23.905C5.26947 24.0094 5.06912 24.0648 4.865 24.0655C4.66062 24.0661 4.45967 24.012 4.28225 23.9086L0.588003 21.7558C0.409394 21.6519 0.260883 21.5018 0.157503 21.3206C0.0539194 21.1386 -0.000428756 20.9318 2.54722e-06 20.7214L0.0332525 1.18607C0.0338871 0.977996 0.0880588 0.773731 0.19036 0.593663C0.292662 0.413595 0.439515 0.264023 0.616261 0.159877C0.793007 0.0557304 0.993465 0.000652445 1.19762 0.000140442C1.40178 -0.000371562 1.60251 0.0537004 1.77975 0.156959L14.4323 7.56406C14.6093 7.66782 14.8099 7.72242 15.0141 7.72242C15.2183 7.72242 15.419 7.66782 15.596 7.56406L28.245 0.156959C28.4224 0.0534682 28.6234 -0.000659698 28.8278 6.06823e-06C29.0325 0.000425057 29.2335 0.0557888 29.4105 0.160526C29.5878 0.264904 29.7351 0.414989 29.8375 0.595714C29.939 0.776533 29.9921 0.981336 29.9915 1.18964V20.7303C29.9915 20.9389 29.939 21.1441 29.8358 21.326C29.7329 21.5069 29.585 21.657 29.407 21.7612L22.7833 25.6493C22.6051 25.7539 22.4572 25.9047 22.3545 26.0863C22.252 26.2674 22.1983 26.4729 22.1988 26.682C22.1989 26.8912 22.2533 27.0967 22.3563 27.2777C22.46 27.4592 22.6092 27.6093 22.7885 27.7129L26.4425 29.8335C26.6186 29.9352 26.8176 29.9887 27.02 29.9887C27.2239 29.9884 27.4243 29.9337 27.601 29.83L35.4008 25.2641V25.2659ZM36.1673 7.73707C36.167 7.94692 36.2214 8.15307 36.3248 8.33456C36.429 8.51625 36.5788 8.66644 36.7587 8.76975C36.938 8.873 37.141 8.92606 37.3469 8.92356C37.5528 8.92105 37.7544 8.86306 37.9312 8.75548L41.433 6.61521C41.6057 6.50968 41.7486 6.36036 41.8478 6.18181C41.9474 6.00292 41.9999 5.80074 42 5.59502V1.23601C41.9996 1.02601 41.9446 0.819866 41.8408 0.638519C41.7366 0.457157 41.5871 0.307153 41.4076 0.203769C41.2281 0.100385 41.0249 0.04731 40.8188 0.0499456C40.6128 0.0522992 40.4112 0.110141 40.2342 0.2176L36.7342 2.35787C36.5609 2.46316 36.4174 2.6125 36.3178 2.79127C36.2188 2.97036 36.1669 3.17251 36.1673 3.37806V7.73707Z" fill="#EDEBDF"/>
</svg>
