<svg width="45" height="41" viewBox="0 0 45 41" fill="none" xmlns="http://www.w3.org/2000/svg">
<path d="M22.5 16.1729C24.6558 16.1729 26.414 17.931 26.414 20.1287C26.414 22.2217 24.6558 24.0008 22.5 24.0008C20.3442 24.0008 18.586 22.2217 18.586 20.1287C18.586 17.931 20.3442 16.1729 22.5 16.1729ZM12.8093 36.8729C14.1279 37.6682 17.0163 36.4543 20.3442 33.3147C19.2558 32.0798 18.1884 30.7403 17.1837 29.338C15.4971 29.1766 13.8203 28.925 12.1605 28.5845C11.093 33.0636 11.4907 36.1403 12.8093 36.8729ZM14.2953 24.8589L13.6884 23.7915C13.4581 24.3984 13.2279 25.0054 13.0814 25.5915C13.6465 25.717 14.2744 25.8217 14.9233 25.9263L14.2953 24.8589ZM27.9837 23.2682L29.6791 20.1287L27.9837 16.9891C27.3558 15.8798 26.686 14.8961 26.0791 13.9124C24.9488 13.8496 23.7558 13.8496 22.5 13.8496C21.2442 13.8496 20.0512 13.8496 18.9209 13.9124C18.314 14.8961 17.6442 15.8798 17.0163 16.9891L15.3209 20.1287L17.0163 23.2682C17.6442 24.3775 18.314 25.3612 18.9209 26.345C20.0512 26.4077 21.2442 26.4077 22.5 26.4077C23.7558 26.4077 24.9488 26.4077 26.0791 26.345C26.686 25.3612 27.3558 24.3775 27.9837 23.2682ZM22.5 9.20309C22.1023 9.66356 21.6837 10.145 21.2651 10.7101H23.7349C23.3163 10.145 22.8977 9.66356 22.5 9.20309ZM22.5 31.0543C22.8977 30.5938 23.3163 30.1124 23.7349 29.5473H21.2651C21.6837 30.1124 22.1023 30.5938 22.5 31.0543ZM32.1698 3.38449C30.8721 2.58914 27.9837 3.80309 24.6558 6.94263C25.7442 8.17751 26.8116 9.51705 27.8163 10.9194C29.5326 11.0868 31.2279 11.338 32.8395 11.6729C33.907 7.19379 33.5093 4.11705 32.1698 3.38449ZM30.7047 15.3984L31.3116 16.4659C31.5419 15.8589 31.7721 15.2519 31.9186 14.6659C31.3535 14.5403 30.7256 14.4356 30.0767 14.331L30.7047 15.3984ZM33.7395 0.642627C36.8163 2.40077 37.1512 7.02635 35.8535 12.4263C41.1698 13.9961 45 16.5915 45 20.1287C45 23.6659 41.1698 26.2612 35.8535 27.831C37.1512 33.231 36.8163 37.8566 33.7395 39.6147C30.6837 41.3729 26.5186 39.3636 22.5 35.5333C18.4814 39.3636 14.3163 41.3729 11.2395 39.6147C8.18372 37.8566 7.84884 33.231 9.14651 27.831C3.83023 26.2612 0 23.6659 0 20.1287C0 16.5915 3.83023 13.9961 9.14651 12.4263C7.84884 7.02635 8.18372 2.40077 11.2395 0.642627C14.3163 -1.11551 18.4814 0.89379 22.5 4.72402C26.5186 0.89379 30.6837 -1.11551 33.7395 0.642627ZM33.1326 20.1287C33.8442 21.6984 34.4721 23.2682 34.9953 24.8589C39.3907 23.5403 41.8605 21.6566 41.8605 20.1287C41.8605 18.6008 39.3907 16.717 34.9953 15.3984C34.4721 16.9891 33.8442 18.5589 33.1326 20.1287ZM11.8674 20.1287C11.1558 18.5589 10.5279 16.9891 10.0047 15.3984C5.6093 16.717 3.13953 18.6008 3.13953 20.1287C3.13953 21.6566 5.6093 23.5403 10.0047 24.8589C10.5279 23.2682 11.1558 21.6984 11.8674 20.1287ZM30.7047 24.8589L30.0767 25.9263C30.7256 25.8217 31.3535 25.717 31.9186 25.5915C31.7721 25.0054 31.5419 24.3984 31.3116 23.7915L30.7047 24.8589ZM24.6558 33.3147C27.9837 36.4543 30.8721 37.6682 32.1698 36.8729C33.5093 36.1403 33.907 33.0636 32.8395 28.5845C31.2279 28.9194 29.5326 29.1705 27.8163 29.338C26.8116 30.7403 25.7442 32.0798 24.6558 33.3147ZM14.2953 15.3984L14.9233 14.331C14.2744 14.4356 13.6465 14.5403 13.0814 14.6659C13.2279 15.2519 13.4581 15.8589 13.6884 16.4659L14.2953 15.3984ZM20.3442 6.94263C17.0163 3.80309 14.1279 2.58914 12.8093 3.38449C11.4907 4.11705 11.093 7.19379 12.1605 11.6729C13.8203 11.3323 15.4971 11.0808 17.1837 10.9194C18.1884 9.51705 19.2558 8.17751 20.3442 6.94263Z" fill="#EDEBDF"/>
</svg>
