<svg width="48" height="48" viewBox="0 0 48 48" fill="none" xmlns="http://www.w3.org/2000/svg">
<path d="M24 0C27.1517 0 30.2726 0.620778 33.1844 1.82689C36.0962 3.033 38.742 4.80083 40.9706 7.02944C43.1992 9.25804 44.967 11.9038 46.1731 14.8156C47.3792 17.7274 48 20.8483 48 24C48 30.3652 45.4714 36.4697 40.9706 40.9706C36.4697 45.4714 30.3652 48 24 48C20.8483 48 17.7274 47.3792 14.8156 46.1731C11.9038 44.967 9.25804 43.1992 7.02944 40.9706C2.52856 36.4697 0 30.3652 0 24C0 17.6348 2.52856 11.5303 7.02944 7.02944C11.5303 2.52856 17.6348 0 24 0ZM19.2 31.992C19.584 33.288 19.536 34.488 19.2 35.592C19.2 35.712 19.104 35.832 19.056 36C19.008 36 18.96 36.168 18.888 36.288C18.624 36.864 18.24 37.416 17.784 37.896C16.392 39.432 14.4 40.008 13.608 39.528C12.696 39 13.2 36.84 14.784 35.136C16.512 33.312 19.008 32.112 19.008 32.112L19.2 31.992ZM39.048 10.272C37.968 6 30.888 4.608 24.216 6.984C20.232 8.4 15.912 10.608 12.816 13.512C9.144 16.968 8.544 19.968 8.784 21.216C9.6 25.632 15.696 28.536 18.192 30.672V30.696C17.472 31.056 12.096 33.768 10.8 36.552C9.504 39.48 11.04 41.592 12 41.88C15.216 42.744 18.456 41.184 20.184 38.568C21.864 36.072 21.744 32.832 21 31.2C22.008 30.96 23.184 30.84 24.672 31.008C28.896 31.512 29.712 34.128 29.544 35.232C29.4 36.336 28.512 36.936 28.224 37.128C27.936 37.296 27.84 37.368 27.864 37.512C27.888 37.704 28.032 37.704 28.272 37.656C28.632 37.584 30.504 36.768 30.576 34.728C30.672 32.136 28.2 29.256 23.832 29.328C22.032 29.376 20.904 29.544 20.088 29.856L19.896 29.64C17.184 26.76 12.192 24.72 12.408 20.832C12.48 19.416 12.96 15.72 22.008 11.208C29.4 7.512 35.328 8.52 36.36 10.8C37.824 13.992 33.192 19.968 25.512 20.832C22.584 21.168 21.024 20.016 20.64 19.608C20.232 19.2 20.184 19.128 20.04 19.2C19.776 19.368 19.944 19.752 20.04 19.992C20.256 20.592 21.216 21.6 22.8 22.176C24.216 22.632 27.672 22.896 31.824 21.288C36.48 19.488 40.128 14.472 39.048 10.272Z" fill="#EDEBDF"/>
</svg>
