<svg width="43" height="26" viewBox="0 0 43 26" fill="none" xmlns="http://www.w3.org/2000/svg">
<path d="M10.75 8.62242C12.1829 2.87453 15.7671 0 21.5 0C30.1 0 31.175 6.4668 35.475 7.54457C38.3421 8.26347 40.85 7.1857 43 4.31117C41.5671 10.0591 37.9829 12.9336 32.25 12.9336C23.65 12.9336 22.575 6.4668 18.275 5.38903C15.4079 4.67012 12.9 5.74789 10.75 8.62242ZM0 21.556C1.43294 15.8081 5.01706 12.9336 10.75 12.9336C19.35 12.9336 20.425 19.4004 24.725 20.4782C27.5921 21.1971 30.1 20.1193 32.25 17.2448C30.8171 22.9927 27.2329 25.8672 21.5 25.8672C12.9 25.8672 11.825 19.4004 7.525 18.3226C4.65794 17.6037 2.15 18.6815 0 21.556Z" fill="#EDEBDF"/>
</svg>
